<svg width="720" height="405" viewBox="0 0 720 405" fill="none" xmlns="http://www.w3.org/2000/svg">
  <rect width="720" height="405" fill="#F6F8F5"/>
  <rect x="44" y="34" width="632" height="336" rx="18" fill="#FFFFFF" stroke="#D8DDD2" stroke-width="2"/>
  <rect x="80" y="70" width="560" height="64" rx="14" fill="#183B42"/>
  <rect x="112" y="96" width="132" height="10" rx="5" fill="#F0C45A"/>
  <rect x="276" y="98" width="220" height="7" rx="3.5" fill="#D7E3DD"/>
  <rect x="562" y="88" width="44" height="28" rx="8" fill="#E9774E"/>
  <rect x="80" y="164" width="164" height="128" rx="14" fill="#FFF8E5" stroke="#E8D8A6" stroke-width="2"/>
  <rect x="278" y="164" width="164" height="128" rx="14" fill="#EAF2F4" stroke="#C8DADC" stroke-width="2"/>
  <rect x="476" y="164" width="164" height="128" rx="14" fill="#FDEEE8" stroke="#F0C7B7" stroke-width="2"/>
  <rect x="108" y="190" width="86" height="8" rx="4" fill="#A77A22"/>
  <rect x="306" y="190" width="92" height="8" rx="4" fill="#183B42"/>
  <rect x="504" y="190" width="88" height="8" rx="4" fill="#B85534"/>
  <path d="M112 260C132 226 148 236 164 214C180 190 202 198 216 178" stroke="#E9774E" stroke-width="7" stroke-linecap="round"/>
  <circle cx="112" cy="260" r="7" fill="#183B42"/>
  <circle cx="164" cy="214" r="7" fill="#183B42"/>
  <circle cx="216" cy="178" r="7" fill="#183B42"/>
  <rect x="306" y="222" width="94" height="12" rx="6" fill="#80A39D"/>
  <rect x="306" y="250" width="112" height="12" rx="6" fill="#F0C45A"/>
  <rect x="504" y="218" width="42" height="46" rx="8" fill="#E9774E"/>
  <rect x="558" y="204" width="18" height="60" rx="9" fill="#F0C45A"/>
  <rect x="588" y="232" width="22" height="32" rx="9" fill="#80A39D"/>
  <path d="M96 326H624" stroke="#D8DDD2" stroke-width="2" stroke-linecap="round"/>
  <circle cx="130" cy="326" r="9" fill="#F0C45A"/>
  <circle cx="236" cy="326" r="9" fill="#E9774E"/>
  <circle cx="342" cy="326" r="9" fill="#80A39D"/>
  <circle cx="448" cy="326" r="9" fill="#183B42"/>
  <circle cx="554" cy="326" r="9" fill="#E9774E"/>
  <rect x="116" y="342" width="384" height="8" rx="4" fill="#B7C5D8"/>
  <rect x="116" y="342" width="318" height="8" rx="4" fill="#183B42"/>
</svg>
