<svg xmlns="http://www.w3.org/2000/svg" viewBox="0 0 640 360" role="img" aria-label="AI infrastructure report cover">
  <defs>
    <linearGradient id="rack" x1="0" y1="0" x2="0" y2="1">
      <stop offset="0" stop-color="#273449"/>
      <stop offset="1" stop-color="#0f172a"/>
    </linearGradient>
    <linearGradient id="beam" x1="0" y1="0" x2="1" y2="0">
      <stop offset="0" stop-color="#69e4d5"/>
      <stop offset=".55" stop-color="#8ab6ff"/>
      <stop offset="1" stop-color="#ffc66d"/>
    </linearGradient>
    <linearGradient id="liquid" x1="0" y1="0" x2="1" y2="1">
      <stop offset="0" stop-color="#27d3bf"/>
      <stop offset="1" stop-color="#2d75ff"/>
    </linearGradient>
  </defs>
  <rect width="640" height="360" fill="#111827"/>
  <rect x="54" y="64" width="138" height="232" rx="14" fill="url(#rack)" stroke="#475569" stroke-width="3"/>
  <rect x="252" y="44" width="138" height="272" rx="14" fill="url(#rack)" stroke="#475569" stroke-width="3"/>
  <rect x="448" y="76" width="138" height="220" rx="14" fill="url(#rack)" stroke="#475569" stroke-width="3"/>
  <g fill="#1f2937" stroke="#64748b" stroke-width="2">
    <rect x="74" y="88" width="98" height="28" rx="6"/><rect x="74" y="130" width="98" height="28" rx="6"/><rect x="74" y="172" width="98" height="28" rx="6"/><rect x="74" y="214" width="98" height="28" rx="6"/>
    <rect x="272" y="72" width="98" height="28" rx="6"/><rect x="272" y="114" width="98" height="28" rx="6"/><rect x="272" y="156" width="98" height="28" rx="6"/><rect x="272" y="198" width="98" height="28" rx="6"/><rect x="272" y="240" width="98" height="28" rx="6"/>
    <rect x="468" y="103" width="98" height="28" rx="6"/><rect x="468" y="145" width="98" height="28" rx="6"/><rect x="468" y="187" width="98" height="28" rx="6"/><rect x="468" y="229" width="98" height="28" rx="6"/>
  </g>
  <g fill="#a7f3d0">
    <circle cx="88" cy="102" r="4"/><circle cx="104" cy="102" r="4"/><circle cx="286" cy="86" r="4"/><circle cx="302" cy="86" r="4"/><circle cx="482" cy="117" r="4"/><circle cx="498" cy="117" r="4"/>
  </g>
  <path d="M80 274 C160 222 242 322 322 264 S480 177 570 244" fill="none" stroke="url(#liquid)" stroke-width="14" stroke-linecap="round" opacity=".86"/>
  <path d="M60 182 H580" stroke="url(#beam)" stroke-width="5" stroke-linecap="round"/>
  <path d="M60 181 C148 126 228 126 316 181 S488 238 580 181" fill="none" stroke="#f8fafc" stroke-width="2" opacity=".52"/>
  <g transform="translate(270 132)">
    <rect x="0" y="0" width="104" height="104" rx="18" fill="#f8fafc"/>
    <rect x="20" y="20" width="64" height="64" rx="12" fill="#111827"/>
    <path d="M33 53h38M52 34v38" stroke="#69e4d5" stroke-width="8" stroke-linecap="round"/>
    <g stroke="#f8fafc" stroke-width="4">
      <path d="M-20 18H0M-20 52H0M-20 86H0M104 18h20M104 52h20M104 86h20"/>
      <path d="M18-20v20M52-20v20M86-20v20M18 104v20M52 104v20M86 104v20"/>
    </g>
  </g>
  <rect x="36" y="34" width="246" height="50" rx="8" fill="#020617" opacity=".64"/>
  <path d="M58 57h104M58 70h182" stroke="#f8fafc" stroke-width="8" stroke-linecap="round" opacity=".84"/>
</svg>
